<?xml version="1.0" encoding="UTF-8"?>
<svg id="Layer_1" data-name="Layer 1" xmlns="http://www.w3.org/2000/svg" viewBox="0 0 32 32">
  <path d="M26,19V7c0-2.757-2.243-5-5-5H11c-2.757,0-5,2.243-5,5v12c0,2.398,1.699,4.404,3.955,4.886l-2.808,4.592c-.288,.471-.14,1.087,.332,1.375,.163,.1,.343,.146,.521,.146,.337,0,.666-.17,.854-.479l.93-1.521h12.433l.93,1.521c.188,.309,.517,.479,.854,.479,.178,0,.358-.047,.521-.146,.471-.288,.62-.904,.332-1.375l-2.808-4.592c2.256-.482,3.955-2.488,3.955-4.886ZM8,13V7c0-1.105,.895-2,2-2h5V14h-6c-.552,0-1-.448-1-1Zm1,6.5c0-.828,.672-1.5,1.5-1.5s1.5,.672,1.5,1.5-.672,1.5-1.5,1.5-1.5-.672-1.5-1.5Zm2.007,6.5l1.223-2h7.541l1.223,2H11.007Zm10.493-5c-.828,0-1.5-.672-1.5-1.5s.672-1.5,1.5-1.5,1.5,.672,1.5,1.5-.672,1.5-1.5,1.5Zm2.5-8c0,.552-.448,1-1,1h-6V5h5c1.105,0,2,.895,2,2v6Z"/>
</svg>